<svg width="1124" height="446" viewBox="0 0 1124 446" fill="none" xmlns="http://www.w3.org/2000/svg">
<path fill-rule="evenodd" clip-rule="evenodd" d="M294.631 224.018C294.631 305.378 228.675 371.333 147.315 371.333C65.9553 371.333 0 305.378 0 224.018C0 142.658 65.9553 76.7026 147.315 76.7026C228.675 76.7026 294.631 142.658 294.631 224.018ZM92.81 160.673H129.639V291.783H92.81V160.673ZM198.878 160.673H162.049V291.783H198.878V160.673Z" fill="#FF9416"/>
<path d="M250.41 290V161.2H312.418C324.439 161.2 334.805 163.163 343.514 167.088C352.346 171.013 359.154 176.656 363.938 184.016C368.722 191.253 371.114 199.84 371.114 209.776C371.114 219.712 368.722 228.299 363.938 235.536C359.154 242.773 352.346 248.416 343.514 252.464C334.805 256.389 324.439 258.352 312.418 258.352H274.514L293.834 239.768V290H250.41ZM293.834 244.552L274.514 224.864H309.658C315.669 224.864 320.085 223.515 322.906 220.816C325.85 218.117 327.322 214.437 327.322 209.776C327.322 205.115 325.85 201.435 322.906 198.736C320.085 196.037 315.669 194.688 309.658 194.688H274.514L293.834 175V244.552ZM364.902 290L421.206 161.2H463.894L520.198 290H475.302L433.718 181.808H450.646L409.062 290H364.902ZM398.39 267.552L409.43 236.272H468.678L479.718 267.552H398.39ZM586.073 292.944C566.324 292.944 550.929 287.608 539.889 276.936C528.849 266.264 523.329 251.299 523.329 232.04V161.2H566.753V230.752C566.753 240.565 568.532 247.557 572.089 251.728C575.647 255.776 580.431 257.8 586.441 257.8C592.575 257.8 597.359 255.776 600.793 251.728C604.351 247.557 606.129 240.565 606.129 230.752V161.2H648.817V232.04C648.817 251.299 643.297 266.264 632.257 276.936C621.217 287.608 605.823 292.944 586.073 292.944ZM716.746 292.944C705.952 292.944 695.525 291.717 685.466 289.264C675.408 286.811 667.128 283.621 660.626 279.696L674.61 248.048C680.744 251.605 687.552 254.488 695.034 256.696C702.64 258.781 710 259.824 717.114 259.824C721.285 259.824 724.536 259.579 726.866 259.088C729.32 258.475 731.098 257.677 732.202 256.696C733.306 255.592 733.858 254.304 733.858 252.832C733.858 250.501 732.57 248.661 729.994 247.312C727.418 245.963 723.984 244.859 719.69 244C715.52 243.019 710.92 242.037 705.89 241.056C700.861 239.952 695.77 238.541 690.618 236.824C685.589 235.107 680.928 232.837 676.634 230.016C672.464 227.195 669.09 223.515 666.514 218.976C663.938 214.315 662.65 208.549 662.65 201.68C662.65 193.707 664.858 186.469 669.274 179.968C673.813 173.344 680.498 168.069 689.33 164.144C698.285 160.219 709.386 158.256 722.634 158.256C731.344 158.256 739.93 159.176 748.394 161.016C756.858 162.856 764.464 165.677 771.21 169.48L758.146 200.944C751.768 197.755 745.573 195.363 739.562 193.768C733.674 192.173 727.909 191.376 722.266 191.376C718.096 191.376 714.784 191.744 712.33 192.48C709.877 193.216 708.098 194.197 706.994 195.424C706.013 196.651 705.522 198 705.522 199.472C705.522 201.68 706.81 203.459 709.386 204.808C711.962 206.035 715.336 207.077 719.506 207.936C723.8 208.795 728.461 209.715 733.49 210.696C738.642 211.677 743.733 213.027 748.762 214.744C753.792 216.461 758.392 218.731 762.562 221.552C766.856 224.373 770.29 228.053 772.866 232.592C775.442 237.131 776.73 242.773 776.73 249.52C776.73 257.371 774.461 264.608 769.922 271.232C765.506 277.733 758.882 283.008 750.05 287.056C741.218 290.981 730.117 292.944 716.746 292.944ZM829.396 209.04H886.804V240.32H829.396V209.04ZM832.34 257.248H896.74V290H789.652V161.2H894.348V193.952H832.34V257.248Z" fill="black"/>
<path d="M899.473 290L955.777 161.2H998.465L1054.77 290H1009.87L968.289 181.808H985.217L943.633 290H899.473ZM932.961 267.552L944.001 236.272H1003.25L1014.29 267.552H932.961ZM1061.7 290V161.2H1105.12V290H1061.7Z" fill="#FF9416"/>
</svg>
